<?xml version="1.0" encoding="UTF-8"?><svg xmlns="http://www.w3.org/2000/svg" xmlns:xlink="http://www.w3.org/1999/xlink" width="768" zoomAndPan="magnify" viewBox="0 0 768 767.999994" height="767.999994" preserveAspectRatio="xMidYMid meet" version="1.0"><defs><clipPath id="clip-0"><path d="M 293.175781 480.675781 L 348.304688 480.675781 L 348.304688 535.804688 L 293.175781 535.804688 Z M 293.175781 480.675781 " clip-rule="nonzero"/></clipPath><clipPath id="clip-1"><path d="M 173.589844 480.675781 L 228.71875 480.675781 L 228.71875 535.804688 L 173.589844 535.804688 Z M 173.589844 480.675781 " clip-rule="nonzero"/></clipPath><clipPath id="clip-2"><path d="M 234.289062 480.675781 L 289.417969 480.675781 L 289.417969 535.804688 L 234.289062 535.804688 Z M 234.289062 480.675781 " clip-rule="nonzero"/></clipPath><clipPath id="clip-3"><path d="M 354.066406 420.816406 L 409.195312 420.816406 L 409.195312 475.945312 L 354.066406 475.945312 Z M 354.066406 420.816406 " clip-rule="nonzero"/></clipPath><clipPath id="clip-4"><path d="M 293.175781 420.816406 L 348.304688 420.816406 L 348.304688 475.945312 L 293.175781 475.945312 Z M 293.175781 420.816406 " clip-rule="nonzero"/></clipPath><clipPath id="clip-5"><path d="M 234.289062 420.816406 L 289.417969 420.816406 L 289.417969 475.945312 L 234.289062 475.945312 Z M 234.289062 420.816406 " clip-rule="nonzero"/></clipPath><clipPath id="clip-6"><path d="M 354.066406 480.675781 L 409.195312 480.675781 L 409.195312 535.804688 L 354.066406 535.804688 Z M 354.066406 480.675781 " clip-rule="nonzero"/></clipPath><clipPath id="clip-7"><path d="M 478.195312 420.816406 L 533.324219 420.816406 L 533.324219 475.945312 L 478.195312 475.945312 Z M 478.195312 420.816406 " clip-rule="nonzero"/></clipPath><clipPath id="clip-8"><path d="M 539.242188 420.816406 L 594.371094 420.816406 L 594.371094 475.945312 L 539.242188 475.945312 Z M 539.242188 420.816406 " clip-rule="nonzero"/></clipPath><clipPath id="clip-9"><path d="M 539.242188 480.675781 L 594.371094 480.675781 L 594.371094 535.804688 L 539.242188 535.804688 Z M 539.242188 480.675781 " clip-rule="nonzero"/></clipPath><clipPath id="clip-10"><path d="M 478.195312 480.675781 L 533.324219 480.675781 L 533.324219 535.804688 L 478.195312 535.804688 Z M 478.195312 480.675781 " clip-rule="nonzero"/></clipPath><clipPath id="clip-11"><path d="M 416.671875 480.675781 L 471.800781 480.675781 L 471.800781 535.804688 L 416.671875 535.804688 Z M 416.671875 480.675781 " clip-rule="nonzero"/></clipPath><clipPath id="clip-12"><path d="M 416.671875 420.816406 L 471.800781 420.816406 L 471.800781 475.945312 L 416.671875 475.945312 Z M 416.671875 420.816406 " clip-rule="nonzero"/></clipPath><clipPath id="clip-13"><path d="M 173.589844 420.816406 L 228.71875 420.816406 L 228.71875 475.945312 L 173.589844 475.945312 Z M 173.589844 420.816406 " clip-rule="nonzero"/></clipPath><clipPath id="clip-14"><path d="M 173.589844 357.53125 L 228.71875 357.53125 L 228.71875 412.660156 L 173.589844 412.660156 Z M 173.589844 357.53125 " clip-rule="nonzero"/></clipPath><clipPath id="clip-15"><path d="M 173.589844 294.613281 L 228.71875 294.613281 L 228.71875 349.742188 L 173.589844 349.742188 Z M 173.589844 294.613281 " clip-rule="nonzero"/></clipPath><clipPath id="clip-16"><path d="M 173.589844 232.15625 L 228.71875 232.15625 L 228.71875 287.285156 L 173.589844 287.285156 Z M 173.589844 232.15625 " clip-rule="nonzero"/></clipPath><clipPath id="clip-17"><path d="M 234.289062 357.53125 L 289.417969 357.53125 L 289.417969 412.660156 L 234.289062 412.660156 Z M 234.289062 357.53125 " clip-rule="nonzero"/></clipPath><clipPath id="clip-18"><path d="M 234.289062 294.613281 L 289.417969 294.613281 L 289.417969 349.742188 L 234.289062 349.742188 Z M 234.289062 294.613281 " clip-rule="nonzero"/></clipPath><clipPath id="clip-19"><path d="M 293.175781 357.53125 L 348.304688 357.53125 L 348.304688 412.660156 L 293.175781 412.660156 Z M 293.175781 357.53125 " clip-rule="nonzero"/></clipPath><clipPath id="clip-20"><path d="M 416.671875 357.53125 L 471.800781 357.53125 L 471.800781 412.660156 L 416.671875 412.660156 Z M 416.671875 357.53125 " clip-rule="nonzero"/></clipPath><clipPath id="clip-21"><path d="M 478.195312 357.53125 L 533.324219 357.53125 L 533.324219 412.660156 L 478.195312 412.660156 Z M 478.195312 357.53125 " clip-rule="nonzero"/></clipPath><clipPath id="clip-22"><path d="M 539.242188 357.53125 L 594.371094 357.53125 L 594.371094 412.660156 L 539.242188 412.660156 Z M 539.242188 357.53125 " clip-rule="nonzero"/></clipPath><clipPath id="clip-23"><path d="M 539.242188 294.613281 L 594.371094 294.613281 L 594.371094 349.742188 L 539.242188 349.742188 Z M 539.242188 294.613281 " clip-rule="nonzero"/></clipPath><clipPath id="clip-24"><path d="M 478.195312 294.613281 L 533.324219 294.613281 L 533.324219 349.742188 L 478.195312 349.742188 Z M 478.195312 294.613281 " clip-rule="nonzero"/></clipPath><clipPath id="clip-25"><path d="M 539.242188 232.15625 L 594.371094 232.15625 L 594.371094 287.285156 L 539.242188 287.285156 Z M 539.242188 232.15625 " clip-rule="nonzero"/></clipPath></defs><g clip-path="url(#clip-0)"><path fill="rgb(0%, 0%, 0%)" d="M 293.175781 535.804688 L 348.304688 535.804688 L 348.304688 480.675781 L 293.175781 480.675781 Z M 295.378906 482.878906 L 346.097656 482.878906 L 346.097656 533.597656 L 295.378906 533.597656 Z M 295.378906 482.878906 " fill-opacity="1" fill-rule="nonzero"/></g><g clip-path="url(#clip-1)"><path fill="rgb(0%, 0%, 0%)" d="M 173.589844 535.804688 L 228.71875 535.804688 L 228.71875 480.675781 L 173.589844 480.675781 Z M 175.792969 482.878906 L 226.511719 482.878906 L 226.511719 533.597656 L 175.792969 533.597656 Z M 175.792969 482.878906 " fill-opacity="1" fill-rule="nonzero"/></g><g clip-path="url(#clip-2)"><path fill="rgb(0%, 0%, 0%)" d="M 234.289062 535.804688 L 289.417969 535.804688 L 289.417969 480.675781 L 234.289062 480.675781 Z M 236.496094 482.878906 L 287.214844 482.878906 L 287.214844 533.597656 L 236.496094 533.597656 Z M 236.496094 482.878906 " fill-opacity="1" fill-rule="nonzero"/></g><g clip-path="url(#clip-3)"><path fill="rgb(0%, 0%, 0%)" d="M 354.066406 475.945312 L 409.195312 475.945312 L 409.195312 420.816406 L 354.066406 420.816406 Z M 356.273438 423.019531 L 406.992188 423.019531 L 406.992188 473.738281 L 356.273438 473.738281 Z M 356.273438 423.019531 " fill-opacity="1" fill-rule="nonzero"/></g><g clip-path="url(#clip-4)"><path fill="rgb(0%, 0%, 0%)" d="M 293.175781 475.945312 L 348.304688 475.945312 L 348.304688 420.816406 L 293.175781 420.816406 Z M 295.378906 423.019531 L 346.097656 423.019531 L 346.097656 473.738281 L 295.378906 473.738281 Z M 295.378906 423.019531 " fill-opacity="1" fill-rule="nonzero"/></g><g clip-path="url(#clip-5)"><path fill="rgb(0%, 0%, 0%)" d="M 234.289062 475.945312 L 289.417969 475.945312 L 289.417969 420.816406 L 234.289062 420.816406 Z M 236.496094 423.019531 L 287.214844 423.019531 L 287.214844 473.738281 L 236.496094 473.738281 Z M 236.496094 423.019531 " fill-opacity="1" fill-rule="nonzero"/></g><g clip-path="url(#clip-6)"><path fill="rgb(0%, 0%, 0%)" d="M 354.066406 535.804688 L 409.195312 535.804688 L 409.195312 480.675781 L 354.066406 480.675781 Z M 356.273438 482.878906 L 406.992188 482.878906 L 406.992188 533.597656 L 356.273438 533.597656 Z M 356.273438 482.878906 " fill-opacity="1" fill-rule="nonzero"/></g><g clip-path="url(#clip-7)"><path fill="rgb(0%, 0%, 0%)" d="M 478.195312 475.945312 L 533.324219 475.945312 L 533.324219 420.816406 L 478.195312 420.816406 Z M 480.402344 423.019531 L 531.121094 423.019531 L 531.121094 473.738281 L 480.402344 473.738281 Z M 480.402344 423.019531 " fill-opacity="1" fill-rule="nonzero"/></g><g clip-path="url(#clip-8)"><path fill="rgb(0%, 0%, 0%)" d="M 539.242188 475.945312 L 594.371094 475.945312 L 594.371094 420.816406 L 539.242188 420.816406 Z M 541.449219 423.019531 L 592.167969 423.019531 L 592.167969 473.738281 L 541.449219 473.738281 Z M 541.449219 423.019531 " fill-opacity="1" fill-rule="nonzero"/></g><g clip-path="url(#clip-9)"><path fill="rgb(0%, 0%, 0%)" d="M 539.242188 535.804688 L 594.371094 535.804688 L 594.371094 480.675781 L 539.242188 480.675781 Z M 541.449219 482.878906 L 592.167969 482.878906 L 592.167969 533.597656 L 541.449219 533.597656 Z M 541.449219 482.878906 " fill-opacity="1" fill-rule="nonzero"/></g><g clip-path="url(#clip-10)"><path fill="rgb(0%, 0%, 0%)" d="M 478.195312 535.804688 L 533.324219 535.804688 L 533.324219 480.675781 L 478.195312 480.675781 Z M 480.402344 482.878906 L 531.121094 482.878906 L 531.121094 533.597656 L 480.402344 533.597656 Z M 480.402344 482.878906 " fill-opacity="1" fill-rule="nonzero"/></g><g clip-path="url(#clip-11)"><path fill="rgb(0%, 0%, 0%)" d="M 416.671875 535.804688 L 471.800781 535.804688 L 471.800781 480.675781 L 416.671875 480.675781 Z M 418.875 482.878906 L 469.59375 482.878906 L 469.59375 533.597656 L 418.875 533.597656 Z M 418.875 482.878906 " fill-opacity="1" fill-rule="nonzero"/></g><g clip-path="url(#clip-12)"><path fill="rgb(0%, 0%, 0%)" d="M 416.671875 475.945312 L 471.800781 475.945312 L 471.800781 420.816406 L 416.671875 420.816406 Z M 418.875 423.019531 L 469.59375 423.019531 L 469.59375 473.738281 L 418.875 473.738281 Z M 418.875 423.019531 " fill-opacity="1" fill-rule="nonzero"/></g><g clip-path="url(#clip-13)"><path fill="rgb(0%, 0%, 0%)" d="M 173.589844 475.945312 L 228.71875 475.945312 L 228.71875 420.816406 L 173.589844 420.816406 Z M 175.792969 423.019531 L 226.511719 423.019531 L 226.511719 473.738281 L 175.792969 473.738281 Z M 175.792969 423.019531 " fill-opacity="1" fill-rule="nonzero"/></g><g clip-path="url(#clip-14)"><path fill="rgb(0%, 0%, 0%)" d="M 173.589844 412.660156 L 228.71875 412.660156 L 228.71875 357.53125 L 173.589844 357.53125 Z M 175.792969 359.738281 L 226.511719 359.738281 L 226.511719 410.457031 L 175.792969 410.457031 Z M 175.792969 359.738281 " fill-opacity="1" fill-rule="nonzero"/></g><g clip-path="url(#clip-15)"><path fill="rgb(0%, 0%, 0%)" d="M 173.589844 349.742188 L 228.71875 349.742188 L 228.71875 294.613281 L 173.589844 294.613281 Z M 175.792969 296.820312 L 226.511719 296.820312 L 226.511719 347.535156 L 175.792969 347.535156 Z M 175.792969 296.820312 " fill-opacity="1" fill-rule="nonzero"/></g><g clip-path="url(#clip-16)"><path fill="rgb(0%, 0%, 0%)" d="M 173.589844 287.285156 L 228.71875 287.285156 L 228.71875 232.15625 L 173.589844 232.15625 Z M 175.792969 234.363281 L 226.511719 234.363281 L 226.511719 285.082031 L 175.792969 285.082031 Z M 175.792969 234.363281 " fill-opacity="1" fill-rule="nonzero"/></g><g clip-path="url(#clip-17)"><path fill="rgb(0%, 0%, 0%)" d="M 234.289062 412.660156 L 289.417969 412.660156 L 289.417969 357.53125 L 234.289062 357.53125 Z M 236.496094 359.738281 L 287.214844 359.738281 L 287.214844 410.457031 L 236.496094 410.457031 Z M 236.496094 359.738281 " fill-opacity="1" fill-rule="nonzero"/></g><g clip-path="url(#clip-18)"><path fill="rgb(0%, 0%, 0%)" d="M 234.289062 349.742188 L 289.417969 349.742188 L 289.417969 294.613281 L 234.289062 294.613281 Z M 236.496094 296.820312 L 287.214844 296.820312 L 287.214844 347.535156 L 236.496094 347.535156 Z M 236.496094 296.820312 " fill-opacity="1" fill-rule="nonzero"/></g><g clip-path="url(#clip-19)"><path fill="rgb(0%, 0%, 0%)" d="M 293.175781 412.660156 L 348.304688 412.660156 L 348.304688 357.53125 L 293.175781 357.53125 Z M 295.378906 359.738281 L 346.097656 359.738281 L 346.097656 410.457031 L 295.378906 410.457031 Z M 295.378906 359.738281 " fill-opacity="1" fill-rule="nonzero"/></g><g clip-path="url(#clip-20)"><path fill="rgb(0%, 0%, 0%)" d="M 416.671875 412.660156 L 471.800781 412.660156 L 471.800781 357.53125 L 416.671875 357.53125 Z M 418.875 359.738281 L 469.59375 359.738281 L 469.59375 410.457031 L 418.875 410.457031 Z M 418.875 359.738281 " fill-opacity="1" fill-rule="nonzero"/></g><g clip-path="url(#clip-21)"><path fill="rgb(0%, 0%, 0%)" d="M 478.195312 412.660156 L 533.324219 412.660156 L 533.324219 357.53125 L 478.195312 357.53125 Z M 480.402344 359.738281 L 531.121094 359.738281 L 531.121094 410.457031 L 480.402344 410.457031 Z M 480.402344 359.738281 " fill-opacity="1" fill-rule="nonzero"/></g><g clip-path="url(#clip-22)"><path fill="rgb(0%, 0%, 0%)" d="M 539.242188 412.660156 L 594.371094 412.660156 L 594.371094 357.53125 L 539.242188 357.53125 Z M 541.449219 359.738281 L 592.167969 359.738281 L 592.167969 410.457031 L 541.449219 410.457031 Z M 541.449219 359.738281 " fill-opacity="1" fill-rule="nonzero"/></g><g clip-path="url(#clip-23)"><path fill="rgb(0%, 0%, 0%)" d="M 539.242188 349.742188 L 594.371094 349.742188 L 594.371094 294.613281 L 539.242188 294.613281 Z M 541.449219 296.820312 L 592.167969 296.820312 L 592.167969 347.535156 L 541.449219 347.535156 Z M 541.449219 296.820312 " fill-opacity="1" fill-rule="nonzero"/></g><g clip-path="url(#clip-24)"><path fill="rgb(0%, 0%, 0%)" d="M 478.195312 349.742188 L 533.324219 349.742188 L 533.324219 294.613281 L 478.195312 294.613281 Z M 480.402344 296.820312 L 531.121094 296.820312 L 531.121094 347.535156 L 480.402344 347.535156 Z M 480.402344 296.820312 " fill-opacity="1" fill-rule="nonzero"/></g><g clip-path="url(#clip-25)"><path fill="rgb(0%, 0%, 0%)" d="M 539.242188 287.285156 L 594.371094 287.285156 L 594.371094 232.15625 L 539.242188 232.15625 Z M 541.449219 234.363281 L 592.167969 234.363281 L 592.167969 285.082031 L 541.449219 285.082031 Z M 541.449219 234.363281 " fill-opacity="1" fill-rule="nonzero"/></g><path fill="rgb(0%, 0%, 0%)" d="M 225.132812 535.804688 L 177.171875 535.804688 C 175.199219 535.804688 173.589844 534.195312 173.589844 532.21875 L 173.589844 484.257812 C 173.589844 482.285156 175.199219 480.675781 177.171875 480.675781 L 225.132812 480.675781 C 227.105469 480.675781 228.71875 482.285156 228.71875 484.257812 L 228.71875 532.21875 C 228.71875 534.195312 227.105469 535.804688 225.132812 535.804688 Z M 225.132812 535.804688 " fill-opacity="1" fill-rule="nonzero"/><path fill="rgb(0%, 0%, 0%)" d="M 225.132812 475.945312 L 177.171875 475.945312 C 175.199219 475.945312 173.589844 474.335938 173.589844 472.359375 L 173.589844 424.398438 C 173.589844 422.425781 175.199219 420.816406 177.171875 420.816406 L 225.132812 420.816406 C 227.105469 420.816406 228.71875 422.425781 228.71875 424.398438 L 228.71875 472.359375 C 228.71875 474.335938 227.105469 475.945312 225.132812 475.945312 Z M 225.132812 475.945312 " fill-opacity="1" fill-rule="nonzero"/><path fill="rgb(0%, 0%, 0%)" d="M 225.132812 412.660156 L 177.171875 412.660156 C 175.199219 412.660156 173.589844 411.050781 173.589844 409.078125 L 173.589844 361.117188 C 173.589844 359.140625 175.199219 357.53125 177.171875 357.53125 L 225.132812 357.53125 C 227.105469 357.53125 228.71875 359.140625 228.71875 361.117188 L 228.71875 409.078125 C 228.71875 411.050781 227.105469 412.660156 225.132812 412.660156 Z M 225.132812 412.660156 " fill-opacity="1" fill-rule="nonzero"/><path fill="rgb(0%, 0%, 0%)" d="M 225.132812 349.742188 L 177.171875 349.742188 C 175.199219 349.742188 173.589844 348.132812 173.589844 346.15625 L 173.589844 298.199219 C 173.589844 296.222656 175.199219 294.613281 177.171875 294.613281 L 225.132812 294.613281 C 227.105469 294.613281 228.71875 296.222656 228.71875 298.199219 L 228.71875 346.15625 C 228.71875 348.132812 227.105469 349.742188 225.132812 349.742188 Z M 225.132812 349.742188 " fill-opacity="1" fill-rule="nonzero"/><path fill="rgb(0%, 0%, 0%)" d="M 225.132812 287.285156 L 177.171875 287.285156 C 175.199219 287.285156 173.589844 285.675781 173.589844 283.699219 L 173.589844 235.742188 C 173.589844 233.765625 175.199219 232.15625 177.171875 232.15625 L 225.132812 232.15625 C 227.105469 232.15625 228.71875 233.765625 228.71875 235.742188 L 228.71875 283.699219 C 228.71875 285.675781 227.105469 287.285156 225.132812 287.285156 Z M 225.132812 287.285156 " fill-opacity="1" fill-rule="nonzero"/><path fill="rgb(0%, 0%, 0%)" d="M 285.832031 535.804688 L 237.875 535.804688 C 235.898438 535.804688 234.289062 534.195312 234.289062 532.21875 L 234.289062 484.257812 C 234.289062 482.285156 235.898438 480.675781 237.875 480.675781 L 285.832031 480.675781 C 287.808594 480.675781 289.417969 482.285156 289.417969 484.257812 L 289.417969 532.21875 C 289.417969 534.195312 287.808594 535.804688 285.832031 535.804688 Z M 285.832031 535.804688 " fill-opacity="1" fill-rule="nonzero"/><path fill="rgb(0%, 0%, 0%)" d="M 285.832031 475.945312 L 237.875 475.945312 C 235.898438 475.945312 234.289062 474.335938 234.289062 472.359375 L 234.289062 424.398438 C 234.289062 422.425781 235.898438 420.816406 237.875 420.816406 L 285.832031 420.816406 C 287.808594 420.816406 289.417969 422.425781 289.417969 424.398438 L 289.417969 472.359375 C 289.417969 474.335938 287.808594 475.945312 285.832031 475.945312 Z M 285.832031 475.945312 " fill-opacity="1" fill-rule="nonzero"/><path fill="rgb(0%, 0%, 0%)" d="M 285.832031 412.660156 L 237.875 412.660156 C 235.898438 412.660156 234.289062 411.050781 234.289062 409.078125 L 234.289062 361.117188 C 234.289062 359.140625 235.898438 357.53125 237.875 357.53125 L 285.832031 357.53125 C 287.808594 357.53125 289.417969 359.140625 289.417969 361.117188 L 289.417969 409.078125 C 289.417969 411.050781 287.808594 412.660156 285.832031 412.660156 Z M 285.832031 412.660156 " fill-opacity="1" fill-rule="nonzero"/><path fill="rgb(0%, 0%, 0%)" d="M 285.832031 349.742188 L 237.875 349.742188 C 235.898438 349.742188 234.289062 348.132812 234.289062 346.15625 L 234.289062 298.199219 C 234.289062 296.222656 235.898438 294.613281 237.875 294.613281 L 285.832031 294.613281 C 287.808594 294.613281 289.417969 296.222656 289.417969 298.199219 L 289.417969 346.15625 C 289.417969 348.132812 287.808594 349.742188 285.832031 349.742188 Z M 285.832031 349.742188 " fill-opacity="1" fill-rule="nonzero"/><path fill="rgb(0%, 0%, 0%)" d="M 344.71875 535.804688 L 296.761719 535.804688 C 294.785156 535.804688 293.175781 534.195312 293.175781 532.21875 L 293.175781 484.257812 C 293.175781 482.285156 294.785156 480.675781 296.761719 480.675781 L 344.71875 480.675781 C 346.695312 480.675781 348.304688 482.285156 348.304688 484.257812 L 348.304688 532.21875 C 348.304688 534.195312 346.695312 535.804688 344.71875 535.804688 Z M 344.71875 535.804688 " fill-opacity="1" fill-rule="nonzero"/><path fill="rgb(0%, 0%, 0%)" d="M 344.71875 475.945312 L 296.761719 475.945312 C 294.785156 475.945312 293.175781 474.335938 293.175781 472.359375 L 293.175781 424.398438 C 293.175781 422.425781 294.785156 420.816406 296.761719 420.816406 L 344.71875 420.816406 C 346.695312 420.816406 348.304688 422.425781 348.304688 424.398438 L 348.304688 472.359375 C 348.304688 474.335938 346.695312 475.945312 344.71875 475.945312 Z M 344.71875 475.945312 " fill-opacity="1" fill-rule="nonzero"/><path fill="rgb(0%, 0%, 0%)" d="M 344.71875 412.660156 L 296.761719 412.660156 C 294.785156 412.660156 293.175781 411.050781 293.175781 409.078125 L 293.175781 361.117188 C 293.175781 359.140625 294.785156 357.53125 296.761719 357.53125 L 344.71875 357.53125 C 346.695312 357.53125 348.304688 359.140625 348.304688 361.117188 L 348.304688 409.078125 C 348.304688 411.050781 346.695312 412.660156 344.71875 412.660156 Z M 344.71875 412.660156 " fill-opacity="1" fill-rule="nonzero"/><path fill="rgb(0%, 0%, 0%)" d="M 405.613281 535.804688 L 357.652344 535.804688 C 355.675781 535.804688 354.066406 534.195312 354.066406 532.21875 L 354.066406 484.257812 C 354.066406 482.285156 355.675781 480.675781 357.652344 480.675781 L 405.613281 480.675781 C 407.585938 480.675781 409.195312 482.285156 409.195312 484.257812 L 409.195312 532.21875 C 409.195312 534.195312 407.585938 535.804688 405.613281 535.804688 Z M 405.613281 535.804688 " fill-opacity="1" fill-rule="nonzero"/><path fill="rgb(0%, 0%, 0%)" d="M 405.613281 475.945312 L 357.652344 475.945312 C 355.675781 475.945312 354.066406 474.335938 354.066406 472.359375 L 354.066406 424.398438 C 354.066406 422.425781 355.675781 420.816406 357.652344 420.816406 L 405.613281 420.816406 C 407.585938 420.816406 409.195312 422.425781 409.195312 424.398438 L 409.195312 472.359375 C 409.195312 474.335938 407.585938 475.945312 405.613281 475.945312 Z M 405.613281 475.945312 " fill-opacity="1" fill-rule="nonzero"/><path fill="rgb(0%, 0%, 0%)" d="M 468.214844 535.804688 L 420.257812 535.804688 C 418.28125 535.804688 416.671875 534.195312 416.671875 532.21875 L 416.671875 484.257812 C 416.671875 482.285156 418.28125 480.675781 420.257812 480.675781 L 468.214844 480.675781 C 470.191406 480.675781 471.800781 482.285156 471.800781 484.257812 L 471.800781 532.21875 C 471.800781 534.195312 470.191406 535.804688 468.214844 535.804688 Z M 468.214844 535.804688 " fill-opacity="1" fill-rule="nonzero"/><path fill="rgb(0%, 0%, 0%)" d="M 468.214844 475.945312 L 420.257812 475.945312 C 418.28125 475.945312 416.671875 474.335938 416.671875 472.359375 L 416.671875 424.398438 C 416.671875 422.425781 418.28125 420.816406 420.257812 420.816406 L 468.214844 420.816406 C 470.191406 420.816406 471.800781 422.425781 471.800781 424.398438 L 471.800781 472.359375 C 471.800781 474.335938 470.191406 475.945312 468.214844 475.945312 Z M 468.214844 475.945312 " fill-opacity="1" fill-rule="nonzero"/><path fill="rgb(0%, 0%, 0%)" d="M 468.214844 412.660156 L 420.257812 412.660156 C 418.28125 412.660156 416.671875 411.050781 416.671875 409.078125 L 416.671875 361.117188 C 416.671875 359.140625 418.28125 357.53125 420.257812 357.53125 L 468.214844 357.53125 C 470.191406 357.53125 471.800781 359.140625 471.800781 361.117188 L 471.800781 409.078125 C 471.800781 411.050781 470.191406 412.660156 468.214844 412.660156 Z M 468.214844 412.660156 " fill-opacity="1" fill-rule="nonzero"/><path fill="rgb(0%, 0%, 0%)" d="M 529.738281 535.804688 L 481.78125 535.804688 C 479.804688 535.804688 478.195312 534.195312 478.195312 532.21875 L 478.195312 484.257812 C 478.195312 482.285156 479.804688 480.675781 481.78125 480.675781 L 529.738281 480.675781 C 531.714844 480.675781 533.324219 482.285156 533.324219 484.257812 L 533.324219 532.21875 C 533.324219 534.195312 531.714844 535.804688 529.738281 535.804688 Z M 529.738281 535.804688 " fill-opacity="1" fill-rule="nonzero"/><path fill="rgb(0%, 0%, 0%)" d="M 529.738281 475.945312 L 481.78125 475.945312 C 479.804688 475.945312 478.195312 474.335938 478.195312 472.359375 L 478.195312 424.398438 C 478.195312 422.425781 479.804688 420.816406 481.78125 420.816406 L 529.738281 420.816406 C 531.714844 420.816406 533.324219 422.425781 533.324219 424.398438 L 533.324219 472.359375 C 533.324219 474.335938 531.714844 475.945312 529.738281 475.945312 Z M 529.738281 475.945312 " fill-opacity="1" fill-rule="nonzero"/><path fill="rgb(0%, 0%, 0%)" d="M 590.785156 535.804688 L 542.828125 535.804688 C 540.851562 535.804688 539.242188 534.195312 539.242188 532.21875 L 539.242188 484.257812 C 539.242188 482.285156 540.851562 480.675781 542.828125 480.675781 L 590.785156 480.675781 C 592.761719 480.675781 594.371094 482.285156 594.371094 484.257812 L 594.371094 532.21875 C 594.371094 534.195312 592.761719 535.804688 590.785156 535.804688 Z M 590.785156 535.804688 " fill-opacity="1" fill-rule="nonzero"/><path fill="rgb(0%, 0%, 0%)" d="M 590.785156 475.945312 L 542.828125 475.945312 C 540.851562 475.945312 539.242188 474.335938 539.242188 472.359375 L 539.242188 424.398438 C 539.242188 422.425781 540.851562 420.816406 542.828125 420.816406 L 590.785156 420.816406 C 592.761719 420.816406 594.371094 422.425781 594.371094 424.398438 L 594.371094 472.359375 C 594.371094 474.335938 592.761719 475.945312 590.785156 475.945312 Z M 590.785156 475.945312 " fill-opacity="1" fill-rule="nonzero"/><path fill="rgb(0%, 0%, 0%)" d="M 529.738281 412.660156 L 481.78125 412.660156 C 479.804688 412.660156 478.195312 411.050781 478.195312 409.078125 L 478.195312 361.117188 C 478.195312 359.140625 479.804688 357.53125 481.78125 357.53125 L 529.738281 357.53125 C 531.714844 357.53125 533.324219 359.140625 533.324219 361.117188 L 533.324219 409.078125 C 533.324219 411.050781 531.714844 412.660156 529.738281 412.660156 Z M 529.738281 412.660156 " fill-opacity="1" fill-rule="nonzero"/><path fill="rgb(0%, 0%, 0%)" d="M 590.785156 412.660156 L 542.828125 412.660156 C 540.851562 412.660156 539.242188 411.050781 539.242188 409.078125 L 539.242188 361.117188 C 539.242188 359.140625 540.851562 357.53125 542.828125 357.53125 L 590.785156 357.53125 C 592.761719 357.53125 594.371094 359.140625 594.371094 361.117188 L 594.371094 409.078125 C 594.371094 411.050781 592.761719 412.660156 590.785156 412.660156 Z M 590.785156 412.660156 " fill-opacity="1" fill-rule="nonzero"/><path fill="rgb(0%, 0%, 0%)" d="M 529.738281 349.742188 L 481.78125 349.742188 C 479.804688 349.742188 478.195312 348.132812 478.195312 346.15625 L 478.195312 298.199219 C 478.195312 296.222656 479.804688 294.613281 481.78125 294.613281 L 529.738281 294.613281 C 531.714844 294.613281 533.324219 296.222656 533.324219 298.199219 L 533.324219 346.15625 C 533.324219 348.132812 531.714844 349.742188 529.738281 349.742188 Z M 529.738281 349.742188 " fill-opacity="1" fill-rule="nonzero"/><path fill="rgb(0%, 0%, 0%)" d="M 590.785156 349.742188 L 542.828125 349.742188 C 540.851562 349.742188 539.242188 348.132812 539.242188 346.15625 L 539.242188 298.199219 C 539.242188 296.222656 540.851562 294.613281 542.828125 294.613281 L 590.785156 294.613281 C 592.761719 294.613281 594.371094 296.222656 594.371094 298.199219 L 594.371094 346.15625 C 594.371094 348.132812 592.761719 349.742188 590.785156 349.742188 Z M 590.785156 349.742188 " fill-opacity="1" fill-rule="nonzero"/><path fill="rgb(0%, 0%, 0%)" d="M 590.785156 287.285156 L 542.828125 287.285156 C 540.851562 287.285156 539.242188 285.675781 539.242188 283.699219 L 539.242188 235.742188 C 539.242188 233.765625 540.851562 232.15625 542.828125 232.15625 L 590.785156 232.15625 C 592.761719 232.15625 594.371094 233.765625 594.371094 235.742188 L 594.371094 283.699219 C 594.371094 285.675781 592.761719 287.285156 590.785156 287.285156 Z M 590.785156 287.285156 " fill-opacity="1" fill-rule="nonzero"/></svg>